<svg width="512" height="512" viewBox="0 0 512 512" xmlns="http://www.w3.org/2000/svg">
  <defs>
    <linearGradient id="bgGrad" x1="0%" y1="0%" x2="100%" y2="100%">
      <stop offset="0%" style="stop-color:#232526;stop-opacity:1" />
      <stop offset="100%" style="stop-color:#414345;stop-opacity:1" />
    </linearGradient>
  </defs>
  <rect width="512" height="512" rx="100" fill="url(#bgGrad)"/>
  
  <rect x="100" y="180" width="312" height="8" rx="4" fill="#ffffff" fill-opacity="0.1"/>
  <rect x="100" y="260" width="312" height="8" rx="4" fill="#ffffff" fill-opacity="0.1"/>
  <rect x="100" y="340" width="312" height="8" rx="4" fill="#ffffff" fill-opacity="0.1"/>
  
  <rect x="120" y="168" width="90" height="32" rx="16" fill="#00d2ff"/>
  <rect x="250" y="168" width="110" height="32" rx="16" fill="#3a7bd5"/>
  <rect x="180" y="248" width="180" height="32" rx="16" fill="#6a11cb"/>
  <rect x="110" y="328" width="70" height="32" rx="16" fill="#ff512f"/>
  <rect x="230" y="328" width="130" height="32" rx="16" fill="#dd2476"/>
  
  <path d="M60 60 L40 80 L60 100" stroke="white" stroke-width="12" fill="none" stroke-linecap="round" stroke-linejoin="round" opacity="0.8"/>
  <path d="M90 60 L110 80 L90 100" stroke="white" stroke-width="12" fill="none" stroke-linecap="round" stroke-linejoin="round" opacity="0.8"/>
</svg>
